<svg width="24" height="41" viewBox="0 0 24 41" fill="none" xmlns="http://www.w3.org/2000/svg">
<path d="M10.9393 12.5865C11.5251 13.1723 12.4749 13.1723 13.0607 12.5865L22.6066 3.04059C23.1924 2.4548 23.1924 1.50505 22.6066 0.919267C22.0208 0.333481 21.0711 0.333481 20.4853 0.919267L12 9.40455L3.51472 0.919267C2.92893 0.333481 1.97919 0.333481 1.3934 0.919267C0.807611 1.50505 0.807611 2.4548 1.3934 3.04059L10.9393 12.5865ZM10.5 10.5186V11.5259H13.5V10.5186H10.5Z" fill="#F2F2F2"/>
<path d="M10.9393 26.068C11.5251 26.6538 12.4749 26.6538 13.0607 26.068L22.6066 16.522C23.1924 15.9362 23.1924 14.9865 22.6066 14.4007C22.0208 13.8149 21.0711 13.8149 20.4853 14.4007L12 22.886L3.51472 14.4007C2.92893 13.8149 1.97919 13.8149 1.3934 14.4007C0.807611 14.9865 0.807611 15.9362 1.3934 16.522L10.9393 26.068ZM10.5 24V25.0073H13.5V24H10.5Z" fill="#F2F2F2"/>
<path d="M10.9393 40.068C11.5251 40.6538 12.4749 40.6538 13.0607 40.068L22.6066 30.522C23.1924 29.9362 23.1924 28.9865 22.6066 28.4007C22.0208 27.8149 21.0711 27.8149 20.4853 28.4007L12 36.886L3.51472 28.4007C2.92893 27.8149 1.97919 27.8149 1.3934 28.4007C0.807611 28.9865 0.807611 29.9362 1.3934 30.522L10.9393 40.068ZM10.5 38V39.0073H13.5V38H10.5Z" fill="#F2F2F2"/>
</svg>
