<svg width="32" height="32" viewBox="0 0 32 32" fill="none" xmlns="http://www.w3.org/2000/svg">
<path d="M31.2404 15.2408H25.3231C25.0236 15.2408 24.7523 15.4169 24.63 15.6902C24.508 15.9637 24.5579 16.2832 24.758 16.5063C25.0089 16.7863 25.1472 17.1476 25.1472 17.5238C25.1472 18.366 24.4622 19.051 23.6201 19.051C22.7779 19.051 22.0929 18.366 22.0929 17.5238C22.0929 17.1476 22.2312 16.7863 22.4822 16.5063C22.6822 16.2832 22.7321 15.9637 22.6101 15.6902C22.4881 15.4167 22.2165 15.2408 21.917 15.2408H16.7586V10.0824C16.7586 9.44104 15.9905 9.07135 15.4931 9.51721C15.2131 9.76821 14.8518 9.90644 14.4756 9.90644C13.6334 9.90644 12.9485 9.22122 12.9485 8.37932C12.9485 7.53714 13.6334 6.8522 14.4756 6.8522C14.8518 6.8522 15.2131 6.99044 15.4931 7.24144C15.9745 7.67458 16.7586 7.33712 16.7586 6.67629V0.758981C16.7586 0.339932 16.4187 0 15.9997 0H0.75898C0.339931 0 0 0.339897 0 0.758981V31.241C0 31.6601 0.339896 32 0.75898 32H31.241C31.6601 32 32 31.6601 32 31.241V16.0003C32 15.5813 31.6601 15.2414 31.241 15.2414L31.2404 15.2408ZM1.51749 1.51763H15.2406V5.43244C13.2996 4.92855 11.4304 6.405 11.4304 8.37933C11.4304 10.3566 13.3029 11.829 15.2406 11.3262V15.241H10.0822C9.7827 15.241 9.51138 15.4172 9.38913 15.6904C9.26716 15.9639 9.31703 16.2835 9.51707 16.5066C9.76807 16.7866 9.9063 17.1479 9.9063 17.5241C9.9063 18.3663 9.22136 19.0512 8.37918 19.0512C7.53701 19.0512 6.85206 18.3663 6.85206 17.5241C6.85206 17.1479 6.9903 16.7866 7.2413 16.5066C7.44133 16.2835 7.49121 15.964 7.36924 15.6904C7.24726 15.4169 6.97567 15.241 6.67616 15.241H1.51775L1.51749 1.51763ZM1.51749 16.7583H5.43146C4.93056 18.6904 6.39695 20.5685 8.37912 20.5685C10.3594 20.5685 11.8283 18.6922 11.3268 16.7583H15.2408V20.6723C13.3087 20.1714 11.4306 21.6378 11.4306 23.6199C11.4306 25.6002 13.3068 27.0691 15.2408 26.5676V30.4816H1.51763L1.51749 16.7583ZM30.4813 30.4814H16.7582V25.323C16.7582 25.0235 16.582 24.7522 16.3088 24.6299C16.0353 24.508 15.7157 24.5581 15.4926 24.7579C15.2126 25.0089 14.8513 25.1471 14.4751 25.1471C13.6329 25.1471 12.948 24.4622 12.948 23.62C12.948 22.7778 13.6329 22.0929 14.4751 22.0929C14.8513 22.0929 15.2126 22.2311 15.4926 22.4821C15.7157 22.6821 16.0352 22.732 16.3088 22.61C16.5822 22.4881 16.7582 22.2165 16.7582 21.917V16.7586H20.6721C20.1715 18.6868 21.6335 20.5687 23.6198 20.5687C25.6001 20.5687 27.0689 18.6925 26.5675 16.7586H30.4814V30.4817L30.4813 30.4814Z" fill="#FF8A00"/>
</svg>
