<svg width="32" height="32" viewBox="0 0 32 32" fill="none" xmlns="http://www.w3.org/2000/svg">
<path d="M18.6606 6.82673C19.0354 6.82673 19.3954 6.96446 19.6744 7.21452C19.8966 7.41381 20.215 7.4635 20.4875 7.34198C20.76 7.22046 20.9352 6.94988 20.9352 6.65148V0.756159C20.9352 0.338668 20.5966 0 20.1791 0H14.2838C13.9854 0 13.715 0.175262 13.5932 0.447736C13.4717 0.719941 13.5214 1.0386 13.7207 1.26086C13.9708 1.53982 14.1085 1.89979 14.1085 2.2746C14.1085 3.11365 13.4261 3.79605 12.5871 3.79605C11.748 3.79605 11.0656 3.11364 11.0656 2.2746C11.0656 1.89978 11.2033 1.53981 11.4534 1.26086C11.6527 1.03862 11.7024 0.720232 11.5809 0.447736C11.4591 0.175262 11.1888 0 10.8904 0H4.99504C4.57755 0 4.23888 0.338633 4.23888 0.756159V5.41174C2.31398 4.9127 0.442871 6.37364 0.442871 8.34845C0.442871 10.3214 2.31212 11.7848 4.23888 11.2851V15.9407C4.23888 16.3582 4.57751 16.6969 4.99504 16.6969H9.65062C9.15158 18.6218 10.6125 20.4929 12.5873 20.4929C14.5603 20.4929 16.0236 18.6237 15.524 16.6969H20.1796C20.5971 16.6969 20.9358 16.3583 20.9358 15.9407V10.0457C20.9358 9.74729 20.7605 9.47697 20.488 9.35519C20.2156 9.23367 19.8972 9.28335 19.6749 9.48265C19.3959 9.73271 19.036 9.87044 18.6612 9.87044C17.8221 9.87044 17.1397 9.18803 17.1397 8.34899C17.1397 7.50995 17.8221 6.82755 18.6612 6.82755L18.6606 6.82673ZM19.4229 11.2849V15.1843H14.2837C13.9853 15.1843 13.715 15.3596 13.5932 15.632C13.4717 15.9045 13.5214 16.2229 13.7207 16.4452C13.9707 16.7241 14.1085 17.0841 14.1085 17.4589C14.1085 18.298 13.4261 18.9803 12.587 18.9803C11.748 18.9803 11.0656 18.2979 11.0656 17.4589C11.0656 17.0841 11.2033 16.7241 11.4534 16.4452C11.6526 16.2229 11.7023 15.9045 11.5808 15.632C11.4593 15.3595 11.1887 15.1843 10.8903 15.1843H5.75109V10.0454C5.75109 9.74695 5.57582 9.47664 5.30335 9.35485C5.03087 9.23333 4.71249 9.28301 4.49022 9.48231C4.21127 9.73237 3.8513 9.8701 3.47648 9.8701C2.63743 9.8701 1.95504 9.18769 1.95504 8.34865C1.95504 7.50961 2.63744 6.82721 3.47648 6.82721C3.85131 6.82721 4.21128 6.96493 4.49022 7.215C4.71247 7.41429 5.03085 7.46398 5.30335 7.34246C5.57582 7.22094 5.75109 6.95035 5.75109 6.65195V1.51273H9.65051C9.15147 3.43762 10.6124 5.30873 12.5872 5.30873C14.5602 5.30873 16.0235 3.43949 15.5239 1.51273H19.4233V5.41215C17.4984 4.91311 15.6273 6.37405 15.6273 8.34885C15.6273 10.3218 17.4966 11.7852 19.4233 11.2856L19.4229 11.2849Z" fill="#FF8A00"/>
</svg>
